# xmcd CD database generated by RipIT
#
# Track frame offsets:
# 150
# 13746
# 25636
# 42075
# 64112
# 80620
# 102161
# 118330
# 128488
# 148736
# 159793
#
# Disc length: 2235 seconds
#
# Revision: 0
# Processed by: cddbd v1.5.2PL0 Copyright (c) Steve Scherf et al.
# Submitted via: RipIT 3.9.0 www.suwald.com/ripit/ripit.html on 2013-03-07 at 16:08
#
DISCID=8608b90b
DTITLE=Regina Spektor - What we Saw from the Cheap Seats
DYEAR=2012
DGENRE=Pop
TTITLE0=Small Town Moon
TTITLE1=Oh Marcello
TTITLE2=Don't Leave Me (Ne Me Quitte Pas)
TTITLE3=Firewood
TTITLE4=Patron Saint
TTITLE5=How
TTITLE6=All The Rowboats
TTITLE7=Ballad Of A Politician
TTITLE8=Open
TTITLE9=The Party
TTITLE10=Jessica
EXTD=
EXTT0=
EXTT1=
EXTT2=
EXTT3=
EXTT4=
EXTT5=
EXTT6=
EXTT7=
EXTT8=
EXTT9=
EXTT10=
PLAYORDER=
